<?xml version="1.0" standalone="no"?>
<!DOCTYPE svg PUBLIC "-//W3C//DTD SVG 20010904//EN"
 "http://www.w3.org/TR/2001/REC-SVG-20010904/DTD/svg10.dtd">
<svg version="1.0" xmlns="http://www.w3.org/2000/svg"
 width="407.000000pt" height="407.000000pt" viewBox="0 0 407.000000 407.000000"
 preserveAspectRatio="xMidYMid meet">
<metadata>
Created by potrace 1.11, written by Peter Selinger 2001-2013
</metadata>
<g transform="translate(0.000000,407.000000) scale(0.100000,-0.100000)"
fill="#000000" stroke="none">
<path d="M0 2035 l0 -2035 2035 0 2035 0 0 2035 0 2035 -2035 0 -2035 0 0
-2035z m3170 0 c0 -874 -3 -1365 -10 -1365 -5 0 -7 -6 -5 -13 4 -8 -69 -44
-216 -107 -122 -52 -224 -101 -226 -107 -4 -10 -196 -13 -914 -13 l-909 0 2
1382 3 1382 222 96 c122 53 226 99 229 103 4 4 416 7 916 7 l908 0 0 -1365z"/>
<path d="M1037 2644 c-4 -4 -7 -373 -7 -821 l0 -813 35 0 35 0 0 780 0 780
488 0 c531 0 551 -2 656 -58 121 -64 238 -218 265 -350 53 -253 -103 -519
-350 -597 -77 -24 -90 -25 -335 -25 l-255 0 3 -37 3 -38 130 -5 130 -5 70
-222 69 -223 38 0 c25 0 36 4 33 13 -2 6 -31 100 -65 207 -33 107 -63 203 -66
213 -4 14 1 17 28 17 l33 -1 73 -224 73 -225 39 0 38 0 -74 222 c-41 122 -74
226 -74 231 0 4 14 7 31 5 l32 -3 77 -225 77 -225 37 -3 c20 -2 36 0 36 5 0 4
-36 113 -80 241 l-80 233 27 10 c14 5 29 7 32 4 3 -3 44 -115 91 -248 l85
-242 38 -3 c20 -2 37 -1 37 1 0 2 -41 123 -91 267 l-91 264 28 20 c16 10 57
47 90 81 131 131 194 362 149 540 -54 211 -215 378 -429 443 -43 13 -136 16
-576 19 -289 2 -529 1 -533 -3z"/>
<path d="M1170 1755 l0 -745 35 0 35 0 0 710 0 711 428 -3 427 -3 58 -29 c71
-34 153 -114 187 -181 22 -44 25 -63 25 -160 0 -100 -3 -115 -28 -166 -34 -70
-109 -142 -185 -177 -57 -27 -59 -27 -320 -30 l-263 -3 3 -32 3 -32 215 -3
c309 -4 391 15 504 119 109 100 151 201 144 353 -3 76 -9 102 -36 159 -41 89
-124 172 -217 218 l-70 34 -472 3 -473 3 0 -746z"/>
<path d="M1320 1685 l0 -675 35 0 35 0 0 640 0 640 313 0 c346 0 376 -4 446
-59 53 -42 81 -102 81 -174 0 -96 -41 -165 -125 -210 -37 -20 -57 -22 -287
-25 l-248 -4 0 -35 0 -34 258 3 c245 3 259 4 304 26 67 33 134 111 154 179 37
128 2 252 -94 330 -86 70 -106 73 -514 73 l-358 0 0 -675z"/>
<path d="M1460 1615 l0 -605 35 0 35 0 0 570 0 571 255 -3 c250 -3 255 -3 277
-26 31 -31 31 -104 -1 -135 -21 -21 -31 -22 -256 -25 l-235 -4 0 -34 0 -35
243 3 c261 3 281 7 320 59 12 17 21 49 24 90 4 55 2 69 -19 99 -13 19 -43 45
-68 58 -43 21 -54 22 -327 22 l-283 0 0 -605z"/>
</g>
</svg>
